<svg xmlns="http://www.w3.org/2000/svg" viewBox="0 544.2 595.3 297.6" width="100%" height="100%"><path fill="#E3120B" d="M0 544.2h595.3v297.6H0z"></path><path fill="#FFF" d="M276.1 622.8c-.3-8.4-2-9.5-14.7-9.5h-2.7v48.1c0 6.6 1.7 8.4 8.2 8.5l.2 2.3c-6.2-.1-10.8-.1-13.9-.1-3.1 0-8 0-14.4.1l.2-2.3c6.5-.2 8.2-1.9 8.2-8.5v-48.1H244c-13 0-14.8 1.2-14.9 9.5l-3.3-.2.3-13.6c12 .1 20.9.2 26.8.2 5.7 0 14.4-.1 25.9-.2l.3 13.6-3 .2zm44.7 49.1c-2.4 0-6 .2-10.9.3l.2-2.1c4.7-.7 5.1-1.6 5.2-9.4v-13.3c0-11.1-1.9-14.8-7.7-14.8-3.3 0-6.6 2-8 5.1-.5 1-.9 2.2-1.2 3.4-.1.4-.1.8-.1 1v18.7c0 7.8.5 8.7 5.2 9.4l.2 2.1c-4.9-.2-8.5-.3-11-.3-2.6 0-6.4.2-11.5.3l.2-2.1c5.9 0 6.7-1.2 6.8-9.4v-40.2c-.1-8.3-.9-9.4-6.8-9.4l-.2-2.1c8-.4 9.8-.7 17-2v27.3c4.7-5.2 8.6-7.2 13.8-7.2 8.6 0 13.4 5.5 13.4 15.5v18.2c.1 8.3.9 9.4 6.8 9.4l.2 2.1c-5.2-.3-9.1-.5-11.6-.5zm28-24.4c.3 13.4 5.2 20.9 13.3 20.9 4.8 0 8.9-2.2 13.2-7.2l1.3 2.4c-5.5 6.7-10.8 9.6-17.8 9.6-12.2 0-20.5-9-20.5-22.3 0-14.2 8.5-24 20.9-24 6.7 0 11.5 2.4 14.8 7.8 2.2 3.7 2.8 6.2 2.9 12.6l-28.1.2zm8.7-17.4c-5.3 0-8 4.4-8.9 14 8.1-.2 10.6-.3 18.7-1.2-1.1-8.6-4.3-12.8-9.8-12.8zM77.8 755.7c11 0 14.2-2.4 15.2-11.9l3.9.2-2.3 16.4-7.5.1-23.9-.2-16.2.1.3-2.6c7.1-.2 9-2.2 9-9.5v-46.1c0-7.3-1.9-9.2-9-9.5l-.3-2.6 15.1.2 23.9-.2 6.2.1.4 14.4-3.9.3c-.7-8.9-2.3-9.8-16.4-9.8h-2.2l-1 .1v26.5c1.9 0 3.3.1 4.2.1 1.6.1 3 .2 4.5.2 7.8 0 9.5-1.7 9.7-9.1h3.3c-.3 5.9-.3 9-.3 11.9 0 2.3 0 5.6.1 10.1h-3.1c-.4-7-2-8.4-9.5-8.5l-5.3-.1-3.7.2v20.6c.1 8.2.6 8.6 8.8 8.6zm54.5-42c-7.3 0-11.1 6.5-11.1 19.1 0 14.8 4.6 23.1 12.8 23.1 4.3 0 7.9-1.9 11.7-5.9l1.5 3.5c-5.6 5.8-10.2 8-16.6 8-12.8 0-21.3-10.1-21.3-25.3 0-15.8 8.9-25.9 22.9-25.9 3.7 0 7.5.7 13.4 2.3l.2 11.7-4.4.3c-1.6-8.9-3.4-10.9-9.1-10.9zm49.1 47.8c-14 0-23.3-9.4-23.8-23.7v-1.5c0-16.5 8.9-26 24.1-26 14.1 0 24.1 10.5 24.1 25.6 0 15.3-9.6 25.6-24.4 25.6zm-1.1-47.5c-7.2 0-10.8 6.2-10.8 18.3 0 1.5 0 2.9.2 4.4 1 14 5.6 21.5 13.1 21.5 7 0 11.2-7.3 11.2-19.6 0-14.5-5.7-24.6-13.7-24.6zm69.1 46.4l.2-2.3c5.2-.8 5.8-1.7 5.8-10.5l.1-6.2v-8.7c0-12.3-2.3-16.4-8.6-16.4-3.8 0-7 2-9 5.6-.8 1.5-1.5 3.8-1.5 4.8v20.8c.1 8.7.6 9.7 5.8 10.5l.3 2.3c-5.3-.2-19.2-.2-25 0l.2-2.3c6.5 0 7.5-1.3 7.5-10.5V724.9c0-9.1-1-10.3-7.5-10.4l-.2-2.3c8.7-.5 10.6-.8 18-2.3l.5 8.8c5.6-6.2 9.8-8.5 15.8-8.5 9.5 0 14.8 6.2 14.8 17.1V747.5c-.1.8-.1 1.6-.1 2.3 0 6.2 1.6 8.1 7.6 8.1l.2 2.3c-5.8 0-19.7 0-24.9.2zm57.4 1.1c-14 0-23.3-9.4-23.8-23.7v-1.5c0-16.5 8.9-26 24.1-26 14.1 0 24.1 10.5 24.1 25.6-.1 15.3-9.7 25.6-24.4 25.6zm-1.2-47.5c-7.1 0-10.8 6.2-10.8 18.3 0 1.5 0 2.9.2 4.4 1 14 5.6 21.5 13.1 21.5 7 0 11.2-7.3 11.2-19.6 0-14.5-5.7-24.6-13.7-24.6zm98.5 46.4l.2-2.3c5.2-.8 5.6-1.7 5.8-10.5V732.7c0-12.1-2.2-16.4-8.2-16.4-3.6 0-7.3 2.3-8.9 5.6-.5 1.2-1 2.3-1.3 3.7-.1.5-.2.9-.2 1v20.8c0 8.7.6 9.7 5.8 10.5l.2 2.3c-5.3-.2-18.1-.2-23.1 0l.2-2.3c5.2-.8 5.6-1.7 5.8-10.5V732.5c0-12.1-2.2-16.4-8.2-16.4-3.7 0-7 2.2-8.9 5.6-.8 1.6-1.5 3.8-1.5 4.8v20.8c.1 8.7.6 9.7 5.8 10.5l.2 2.3c-5.2-.2-19.1-.2-24.9 0l.2-2.3c6.5 0 7.5-1.3 7.5-10.5V724.7c0-9.1-1-10.3-7.5-10.4l-.2-2.3c8.7-.5 10.6-.8 18-2.3l.5 8.8c5.6-6.2 9.8-8.5 15.6-8.5 6.6 0 10.5 2.7 13.5 9.2 5.9-6.8 10.3-9.2 16.3-9.2 9.2 0 14.5 6.2 14.5 17.1V747.3c0 .8-.1 1.6-.1 2.3 0 6.2 1.7 8.1 7.6 8.1l.2 2.3c-6 .2-19.7.2-24.9.4zm47.5-.4c-2.9 0-7.3.2-13.3.4l.2-2.3c6.5 0 7.5-1.3 7.5-10.4l.1-6.2v-10.2l-.1-6.2c0-9.1-1-10.3-7.5-10.4l-.2-2.3c9-.6 11-.9 18.9-2.3v31.5l.1 6.2c0 9.2.9 10.4 7.5 10.4l.2 2.3c-6-.3-10.4-.5-13.4-.5zm-.4-59.7c-3.7 0-6.5-2.8-6.5-6.6 0-3.7 2.9-6.6 6.5-6.6s6.5 3 6.5 6.6c0 3.7-2.8 6.6-6.5 6.6zm41.7 13.4c-4.4 0-7.5 2.5-7.5 6.2 0 3.4 1.6 5.5 6.6 8.7 4.6 3 8.2 5.8 10.6 7.9 2.7 2.6 4.3 5.9 4.3 9.8 0 8.7-7.3 15.3-16.7 15.3-3.6 0-7-.8-13.3-2.8l-.4-9.9 5-.2c2.3 7.5 3.7 9 8.9 9 4.5 0 7.4-2.3 7.4-5.9 0-3.3-2-5.9-8.2-10.1-3.1-2.2-5.3-3.6-6.5-4.5-2.6-2-4.4-4.3-5.3-6.9-.6-1.5-.9-3.2-.9-5.3 0-8.9 6-14.6 15.2-14.6 3.4 0 5.3.3 13.3 2.2l.2 9.8-5 .2c-1.1-6.7-3.1-8.9-7.7-8.9zm49.9 42.7c1.6 0 3-.2 5.3-.9v2.8c-3.3 1.9-7.9 2.9-12.6 2.9-4.3 0-8.4-2.4-10.2-6-1.5-3-1.9-6-1.9-12.7v-25h-6.2v-4.4c7.7-.6 10.7-3.9 13-14.1h4.4v13.2H547l-1.3 5.3h-10.9v24c-.2 12.1 1.4 14.9 8 14.9z"></path></svg>
