<svg width="336" height="290" xmlns="http://www.w3.org/2000/svg"><g fill="none" fill-rule="evenodd"><path fill="#EBEBEB" d="M300.228 81.4H.944v186.812H311.18V81.4z"/><path fill="#121212" d="M300.228 80.459v1.88h10.008v184.933H1.889V82.339h9.093v-1.88H0v188.694h312.124V80.46z"/><path fill="#EBEBEB" d="M19.4 69.117H9.96V257.8h291.776V69.117h-10.284l-28.253 26.028-233.1-9.99z"/><path d="M10.903 256.86h289.89V70.057h-8.973l-28.27 26.045-.392-.016-233.58-10.01-10.683-16.019h-7.992V256.86zm291.777 1.882H9.015V68.176h10.89l10.715 16.06 232.227 9.953 28.235-26.013h11.598v190.566z" fill="#121212"/><path d="M155.633 85.156c0-14.71 11.965-26.635 26.727-26.635h109.092v188.848H182.36c-14.762 0-26.727 11.926-26.727 26.635" fill="#FFF"/><path d="M156.577 274.004h-1.888c0-15.205 12.414-27.576 27.67-27.576h108.149V59.461H182.36c-14.217 0-25.783 11.527-25.783 25.695h-1.888c0-15.206 12.414-27.576 27.67-27.576h110.036v190.73H182.36c-14.217 0-25.783 11.526-25.783 25.694" fill="#121212"/><path d="M155.633 85.156c0-14.71-11.966-26.635-26.726-26.635H19.815v188.848h109.092c14.76 0 26.726 11.926 26.726 26.635" fill="#FFF"/><path d="M156.577 274.004h-1.888c0-14.168-11.566-25.694-25.782-25.694H18.87V57.58h110.036c15.257 0 27.67 12.37 27.67 27.576h-1.888c0-14.168-11.566-25.695-25.782-25.695H20.759v186.967h108.148c15.257 0 27.67 12.371 27.67 27.576" fill="#121212"/><path fill="#FFF" d="M30.1 142.125h74.205V69.244H30.099z"/><path d="M31.043 141.185h72.318v-71H31.043v71zm-1.888 1.88h76.094V68.304H29.155v74.763z" fill="#1D1D1B"/><path d="M30.1 152.536h74.205" fill="#FFF"/><path fill="#121212" d="M30.1 153.476h74.205v-1.88H30.099z"/><path d="M112.186 152.536h33.163" fill="#FFF"/><path fill="#121212" d="M112.185 153.476h33.163v-1.88h-33.163z"/><path d="M112.186 162.948h33.163" fill="#FFF"/><path fill="#121212" d="M112.185 163.888h33.163v-1.88h-33.163zM112.186 69.244h16.58"/><path fill="#1D1D1B" d="M112.186 70.185h16.581v-1.882h-16.58z"/><path d="M112.186 79.656h33.163" fill="#FFF"/><path fill="#121212" d="M112.185 80.596h33.163v-1.88h-33.163z"/><path d="M30.1 173.36h33.163" fill="#FFF"/><path fill="#121212" d="M30.1 174.3h33.162v-1.881H30.1zM71.142 173.36h33.164"/><path fill="#1D1D1B" d="M71.141 174.3h33.164v-1.881H71.14z"/><path d="M112.186 173.36h33.163" fill="#FFF"/><path fill="#1D1D1B" d="M112.185 174.3h33.163v-1.881h-33.163z"/><path d="M30.1 183.772h33.163" fill="#FFF"/><path fill="#121212" d="M30.1 184.712h33.162v-1.881H30.1z"/><path d="M71.142 183.772h33.164" fill="#FFF"/><path fill="#121212" d="M71.141 184.712h33.164v-1.881H71.14z"/><path d="M112.186 183.772h33.163" fill="#FFF"/><path fill="#1D1D1B" d="M112.185 184.712h33.163v-1.881h-33.163z"/><path d="M30.1 194.183h33.163" fill="#121212"/><path fill="#1D1D1B" d="M30.1 195.124h33.162v-1.882H30.1z"/><path d="M71.142 194.183h33.164" fill="#FFF"/><path fill="#121212" d="M71.141 195.124h33.164v-1.882H71.14z"/><path d="M30.1 204.595h33.163" fill="#FFF"/><path fill="#121212" d="M30.1 205.535h33.162v-1.88H30.1z"/><path d="M71.142 204.595h33.164" fill="#FFF"/><path fill="#121212" d="M71.141 205.535h33.164v-1.88H71.14z"/><path d="M30.1 215.006h33.163" fill="#FFF"/><path fill="#121212" d="M30.1 215.947h33.162v-1.88H30.1z"/><path d="M71.142 215.006h33.164" fill="#FFF"/><path fill="#121212" d="M71.141 215.947h33.164v-1.88H71.14z"/><path d="M30.1 225.418h33.163" fill="#FFF"/><path fill="#121212" d="M30.1 226.358h33.162v-1.881H30.1zM71.142 225.418h33.164"/><path fill="#1D1D1B" d="M71.141 226.358h33.164v-1.881H71.14z"/><path d="M112.186 225.418h33.163" fill="#FFF"/><path fill="#1D1D1B" d="M112.185 226.358h33.163v-1.881h-33.163z"/><path d="M30.1 235.83h33.163" fill="#FFF"/><path fill="#121212" d="M30.1 236.77h33.162v-1.882H30.1z"/><path d="M71.142 235.83h33.164" fill="#FFF"/><path fill="#121212" d="M71.141 236.77h33.164v-1.882H71.14z"/><path d="M112.186 235.83h33.163" fill="#FFF"/><path fill="#1D1D1B" d="M112.185 236.77h33.163v-1.882h-33.163z"/><path d="M112.186 90.067h33.163" fill="#FFF"/><path fill="#121212" d="M112.185 91.008h33.163v-1.881h-33.163z"/><path d="M112.186 100.479h33.163" fill="#FFF"/><path fill="#121212" d="M112.185 101.419h33.163v-1.882h-33.163z"/><path d="M112.186 110.89h33.163" fill="#FFF"/><path fill="#121212" d="M112.185 111.832h33.163v-1.881h-33.163z"/><path d="M112.186 121.302h33.163" fill="#FFF"/><path fill="#121212" d="M112.185 122.242h33.163v-1.88h-33.163z"/><path d="M112.186 131.714h33.163" fill="#FFF"/><path fill="#121212" d="M112.185 132.654h33.163v-1.881h-33.163z"/><path d="M112.186 142.125h33.163" fill="#FFF"/><path fill="#121212" d="M112.185 143.066h33.163v-1.881h-33.163z"/><path d="M71.142 152.536h33.164" fill="#FFF"/><path fill="#1D1D1B" d="M71.141 153.476h33.164v-1.88H71.14z"/><path d="M155.633 274.004V85.156" fill="#FFF"/><path fill="#1D1D1B" d="M154.69 274.005h1.887V85.156h-1.887z"/><path d="M248.003 152.536h33.164" fill="#FFF"/><path fill="#121212" d="M248.003 153.476h33.164v-1.88h-33.164z"/><path d="M248.003 162.948h33.164" fill="#FFF"/><path fill="#121212" d="M248.003 163.888h33.164v-1.88h-33.164z"/><path d="M248.003 173.36h33.164" fill="#FFF"/><path fill="#121212" d="M248.003 174.3h33.164v-1.881h-33.164z"/><path d="M248.003 183.772h33.164" fill="#FFF"/><path fill="#121212" d="M248.003 184.712h33.164v-1.881h-33.164z"/><path d="M248.003 235.83h33.164" fill="#FFF"/><path fill="#1D1D1B" d="M248.003 236.77h33.164v-1.882h-33.164z"/><path d="M248.003 131.714h33.164" fill="#FFF"/><path fill="#121212" d="M248.003 132.654h33.164v-1.881h-33.164z"/><path d="M248.003 142.125h33.164" fill="#FFF"/><path fill="#121212" d="M248.003 143.066h33.164v-1.881h-33.164z"/><path d="M248.003 90.067h33.164" fill="#FFF"/><path fill="#121212" d="M248.003 91.008h33.164v-1.881h-33.164z"/><path d="M248.003 100.479h33.164" fill="#FFF"/><path fill="#121212" d="M248.003 101.419h33.164v-1.882h-33.164z"/><path d="M248.003 110.89h33.164" fill="#FFF"/><path fill="#121212" d="M248.003 111.832h33.164v-1.881h-33.164z"/><path d="M248.003 121.047h33.164" fill="#FFF"/><path fill="#121212" d="M248.003 121.988h33.164v-1.881h-33.164zM248.003 69.244h33.164"/><path fill="#1D1D1B" d="M248.003 70.185h33.164v-1.882h-33.164z"/><path d="M248.003 79.656h33.164" fill="#FFF"/><path fill="#121212" d="M248.003 80.596h33.164v-1.88h-33.164zM165.918 152.536h33.163"/><path fill="#1D1D1B" d="M165.917 153.476h33.164v-1.88h-33.164z"/><path d="M165.918 162.948h33.163" fill="#121212"/><path fill="#1D1D1B" d="M165.917 163.888h33.164v-1.88h-33.164z"/><path d="M182.499 69.244h16.581" fill="#FFF"/><path fill="#121212" d="M182.5 70.185h16.58v-1.882H182.5z"/><path d="M165.918 79.656h33.163" fill="#FFF"/><path fill="#121212" d="M165.917 80.596h33.164v-1.88h-33.164z"/><path d="M165.918 173.36h33.163" fill="#FFF"/><path fill="#1D1D1B" d="M165.917 174.3h33.164v-1.881h-33.164z"/><path d="M165.918 90.067h33.163" fill="#FFF"/><path fill="#121212" d="M165.917 91.008h33.164v-1.881h-33.164z"/><path d="M165.918 100.479h33.163" fill="#FFF"/><path fill="#121212" d="M165.917 101.419h33.164v-1.882h-33.164z"/><path d="M165.918 110.89h33.163" fill="#FFF"/><path fill="#121212" d="M165.917 111.832h33.164v-1.881h-33.164z"/><path d="M165.918 121.302h33.163" fill="#FFF"/><path fill="#121212" d="M165.917 122.242h33.164v-1.88h-33.164zM165.918 131.714h33.163"/><path fill="#1D1D1B" d="M165.917 132.654h33.164v-1.881h-33.164z"/><path d="M165.918 142.125h33.163" fill="#FFF"/><path fill="#121212" d="M165.917 143.066h33.164v-1.881h-33.164z"/><path d="M206.96 152.536h33.164" fill="#FFF"/><path fill="#121212" d="M206.96 153.476h33.163v-1.88H206.96z"/><path d="M206.96 162.948h33.164" fill="#FFF"/><path fill="#121212" d="M206.96 163.888h33.163v-1.88H206.96z"/><path d="M206.96 173.36h33.164" fill="#FFF"/><path fill="#121212" d="M206.96 174.3h33.163v-1.881H206.96z"/><path d="M206.96 183.772h33.164" fill="#FFF"/><path fill="#121212" d="M206.96 184.712h33.163v-1.881H206.96z"/><path d="M206.96 194.183h33.164" fill="#FFF"/><path fill="#121212" d="M206.96 195.124h33.163v-1.882H206.96z"/><path d="M206.96 204.595h33.164" fill="#FFF"/><path fill="#121212" d="M206.96 205.535h33.163v-1.88H206.96z"/><path d="M206.96 215.006h33.164" fill="#FFF"/><path fill="#121212" d="M206.96 215.947h33.163v-1.88H206.96z"/><path d="M206.96 225.418h33.164" fill="#FFF"/><path fill="#121212" d="M206.96 226.358h33.163v-1.881H206.96z"/><path d="M206.96 235.83h33.164" fill="#FFF"/><path fill="#121212" d="M206.96 236.77h33.163v-1.882H206.96z"/><path d="M206.96 131.714h33.164" fill="#FFF"/><path fill="#121212" d="M206.96 132.654h33.163v-1.881H206.96z"/><path d="M206.96 142.125h33.164" fill="#FFF"/><path fill="#121212" d="M206.96 143.066h33.163v-1.881H206.96z"/><path d="M240.124 69.244V48.418c0-16.886 13.862-30.701 30.806-30.701 16.943 0 30.806 13.815 30.806 30.7v20.827h9.443V58.52l3.442-4.869a17.817 17.817 0 0 0 2.985-13.381c-3.903-22.126-23.4-39.075-46.676-39.075-23.193 0-42.633 16.828-46.634 38.838-.88 4.834.317 9.822 3.263 13.764l3.53 4.723v10.724" fill="#FFF"/><path d="M312.124 70.185h-11.331V48.418c0-16.41-13.396-29.76-29.863-29.76-16.466 0-29.862 13.35-29.862 29.76v20.826h-1.888V48.418c0-17.448 14.243-31.642 31.75-31.642 17.506 0 31.75 14.194 31.75 31.642v19.885h7.556V58.221l3.613-5.111c2.575-3.644 3.605-8.264 2.828-12.677-3.916-22.19-23.155-38.298-45.747-38.298-22.474 0-41.696 16.01-45.706 38.066-.826 4.547.301 9.298 3.092 13.033l3.718 4.975v11.035h-1.888V58.832l-3.344-4.474c-3.103-4.152-4.355-9.434-3.434-14.493C227.54 16.913 247.543.255 270.93.255c23.51 0 43.53 16.76 47.605 39.853.865 4.901-.28 10.036-3.142 14.085l-3.27 4.625v11.367z" fill="#E3120B"/><path fill="#FFF" d="M30.1 142.125h74.205V13.513H30.099z"/><path d="M31.043 141.185h72.318V14.453H31.043v126.732zm-1.888 1.88h76.094V12.573H29.155v130.494z" fill="#EF1818"/><path d="M40.087 118.831h54.23V23.704h-54.23v95.127zm-1.887 1.881h58.004v-98.89H38.2v98.89z" fill="#E3120B"/><path fill="#FFF" d="M248.003 235.829h33.164v-41.646h-33.164z"/><path d="M248.947 234.888h31.276v-39.764h-31.276v39.764zm-1.888 1.882h35.051v-43.528h-35.05v43.528z" fill="#1D1D1B"/><path d="M318.453 121.047h-16.717V69.244h16.717c9.083 0 16.446 7.338 16.446 16.39v19.023c0 9.052-7.363 16.39-16.446 16.39" fill="#FFF"/><path d="M302.68 120.106h15.773c8.547 0 15.503-6.93 15.503-15.45V85.635c0-8.518-6.956-15.45-15.503-15.45H302.68v49.922zm15.773 1.881h-17.66V68.303h17.66c9.588 0 17.39 7.776 17.39 17.33v19.024c0 9.556-7.802 17.33-17.39 17.33z" fill="#E3120B"/><path fill="#FFF" d="M104.305 235.829h94.776v-62.47h-94.776z"/><path d="M105.249 234.888h92.888v-60.59h-92.888v60.59zm-1.888 1.882h96.663v-64.352h-96.663v64.352z" fill="#EF1818"/><path fill="#FFF" d="M199.08 235.83H104.304l-22.603 42.794h139.985z"/><path d="M83.263 277.683h136.86L198.51 236.77h-93.637l-21.61 40.913zm138.422 1.882H81.7a.94.94 0 0 1-.836-1.38l22.606-42.795a.945.945 0 0 1 .835-.501h94.775c.351 0 .672.193.836.501l22.605 42.795a.94.94 0 0 1-.836 1.38zM113.129 224.477h76.716v-39.765h-76.716v39.765zm-1.887 1.88h80.492v-43.526h-80.492v43.527z" fill="#EF1818"/><path d="M31.043 141.185h72.318V14.453H31.043v126.732zm-1.888 1.88h76.094V12.573H29.155v130.494z" fill="#E3120B"/><path d="M67.202 127.14a2.994 2.994 0 0 0-2.996 2.986 2.994 2.994 0 0 0 2.996 2.986 2.994 2.994 0 0 0 2.997-2.986 2.994 2.994 0 0 0-2.997-2.986m0 7.853c-2.693 0-4.884-2.183-4.884-4.867s2.191-4.867 4.884-4.867c2.693 0 4.884 2.183 4.884 4.867s-2.19 4.867-4.884 4.867M218.635 70.185c-5.917 0-10.73 4.797-10.73 10.694v28.534c0 5.895 4.813 10.694 10.73 10.694h20.545V70.185h-20.545zm22.433 51.803h-22.433c-6.958 0-12.618-5.641-12.618-12.575V80.879c0-6.934 5.66-12.576 12.618-12.576h22.433v53.685z" fill="#E3120B"/><path fill="#FFF" d="M81.7 289.036h139.984v-10.412H81.7z"/><path d="M82.643 288.095h138.098v-8.53H82.643v8.53zm139.043 1.881H81.7a.943.943 0 0 1-.944-.94v-10.412c0-.52.423-.94.944-.94h139.986c.52 0 .944.42.944.94v10.412c0 .519-.423.94-.944.94z" fill="#EF1818"/><path fill="#FFF" d="M190.79 246.538h-78.604l-10.97 21.674h100.25z"/><path d="M102.75 267.272h97.2l-9.748-19.793h-77.436l-10.017 19.793zm98.715 1.881H101.216a.94.94 0 0 1-.843-1.364l10.97-21.674a.944.944 0 0 1 .843-.517h78.604c.36 0 .688.205.847.527l10.675 21.674a.938.938 0 0 1-.847 1.354z" fill="#EF1818"/><path d="M145.348 246.538l-1.628 21.674" fill="#FFF"/><path fill="#EF1818" d="M144.66 268.282l-1.882-.139 1.629-21.675 1.882.14z"/><path d="M123.59 246.538l-8.6 21.674" fill="#FFF"/><path fill="#EF1818" d="M115.867 268.558l-1.755-.691 8.601-21.674 1.754.691z"/><path d="M134.632 246.538l-4.816 21.674" fill="#FFF"/><path fill="#EF1818" d="M130.737 268.416l-1.843-.406 4.816-21.674 1.843.406z"/><path d="M155.633 246.538l1.629 21.674" fill="#FFF"/><path fill="#EF1818" d="M156.32 268.282l-1.628-21.674 1.883-.14 1.628 21.675z"/><path d="M177.39 246.538l8.6 21.674" fill="#FFF"/><path fill="#EF1818" d="M185.113 268.558l-8.6-21.674 1.755-.69 8.601 21.673z"/><path d="M166.349 246.538l4.816 21.674" fill="#FFF"/><path fill="#EF1818" d="M170.243 268.416l-4.816-21.674 1.844-.406 4.816 21.674z"/><path d="M196.337 257.801h-89.852" fill="#FFF"/><path fill="#EF1818" d="M106.486 258.742h89.851v-1.881h-89.851z"/><path d="M223.847 69.244v51.803" fill="#E3120B"/><path fill="#EF1818" d="M222.903 121.047h1.887V69.244h-1.887z"/><path d="M318.453 121.047V69.244" fill="#FFF"/><path fill="#E3120B" d="M317.509 121.047h1.887V69.244h-1.887z"/></g></svg>